<svg xmlns="http://www.w3.org/2000/svg" width="182" height="221"><style>tspan{white-space:pre}</style><g id="Skills"><g id="2"><text id="GRAPHIC DESIGN" transform="translate(-1.125 220.25)"><tspan x="0" y="0" style="line-height:18px" font-size="24" letter-spacing="0" fill="#3c4761" font-family="Titillium Web" font-weight="700">GRAPHIC DESIGN</tspan></text><text id="70%" transform="translate(56.484 108.271) scale(1.158)"><tspan x="0" y="0" style="line-height:18px" font-size="43" letter-spacing="1" fill="#3c4761" font-family="Titillium Web" font-weight="300">70%</tspan></text><path id="Base" fill-rule="evenodd" d="M90 11c44.18 0 80 35.82 80 80s-35.82 80-80 80-80-35.82-80-80 35.82-80 80-80zM23 91c0 37 30 67 67 67s67-30 67-67-30-67-67-67-67 30-67 67z" fill="#dfe8ed"/><path id="Progress" d="M90 .33V31.5s106.17 41.17 40.58 105.42c-50.46 49.43-97.88-20.8-97.88-20.8l-20.03 10.96S49.25 197.47 123 170.25c58.83-21.72 59.67-91.58 36.67-125.58S90 .33 90 .33z" fill="#15c7a8"/></g></g></svg>