<svg xmlns="http://www.w3.org/2000/svg" width="103" height="135"><style/><g id="Services"><g id="2"><g id="Crayon icon"><path id="Color Fill 3" d="M3.81 90.46l3.95 40.16 36.75-16.66s-7.82-26.45-40.7-23.5z" fill="#ffecba"/><path id="Shape 25" d="M5.66 119.24s5.79.65 13.14 7.59c7.35 6.93-9.54 7.19-9.54 7.19s-8.73-3.88-8.83-4.71c-.1-.83 2.09-9.96 2.09-9.96" fill="#393939"/><path id="Shape 19" d="M80.66 3.42c11.24 6.49 15.09 20.86 8.6 32.1l-5.5 9.53c-6.49 11.24-20.86 15.09-32.1 8.6-11.24-6.49-15.09-20.86-8.6-32.1l5.5-9.53C55.05.78 69.42-3.07 80.66 3.42z" fill="#e88f8d"/><path id="Shape 23" d="M81.59 2.8l20.79 12-13.5 23.39-20.79-12L81.59 2.8z" fill="#d97475"/><path id="Shape 17 copy" d="M48.31 12.46s11.17 4.14 21.34 10.01c10.18 5.88 19.36 13.48 19.36 13.48l-12.5 21.66-40.7-23.5 12.5-21.65z" fill="#daeaf2"/><path id="Shape 24" d="M71.09 20.99l21.65 12.5-13 22.52-21.65-12.5 13-22.52z" fill="#bedae8"/><path id="Shape 17" d="M37.85 30.33s11.17 4.14 21.35 10.01c10.17 5.88 19.35 13.49 19.35 13.49l-34.04 60.13s-2.96-4.02-8.53-7.23c-6.56-3.79-14.71.74-14.71.74s.1-9.18-7.06-13.32c-5.45-3.14-10.4-3.69-10.4-3.69l34.04-60.13z" fill="#f1c40f"/><path id="Shape 18" d="M65.59 31.44l23.38 13.51-44 76.21-23.38-13.5 44-76.22z" fill="#f39c12"/></g></g></g></svg>