<svg xmlns="http://www.w3.org/2000/svg" width="161" height="130"><style/><g id="Services"><g id="3"><g id="Gears icon"><path id="Shape 16" d="M97.2 56.69c1.62-.3 2.95-1.9 2.95-3.55v-8c0-1.65-1.33-3.25-2.95-3.56l-6.42-1.2c-1.62-.3-3.37-1.83-3.89-3.4l-1.86-4.53c-.74-1.48-.58-3.8.35-5.16l3.68-5.38c.93-1.37.74-3.44-.43-4.6l-5.65-5.66c-1.17-1.17-3.24-1.36-4.6-.43l-5.32 3.64c-1.36.93-3.67 1.08-5.14.33l-4.65-1.93c-1.56-.53-3.09-2.29-3.4-3.91L58.7 3.09C58.4 1.46 56.8.14 55.15.14h-8c-1.65 0-3.25 1.32-3.56 2.95l-1.16 6.22c-.31 1.62-1.84 3.38-3.4 3.89l-4.72 1.95c-1.48.74-3.79.59-5.16-.34l-5.23-3.59c-1.37-.93-3.43-.74-4.6.43l-5.66 5.66c-1.17 1.16-1.36 3.23-.43 4.6l3.6 5.25c.93 1.36 1.08 3.68.34 5.15l-1.94 4.7c-.52 1.57-2.27 3.1-3.89 3.4L5.1 41.58c-1.63.31-2.95 1.91-2.95 3.56v8c0 1.65 1.32 3.25 2.95 3.55l6.24 1.17c1.62.31 3.37 1.84 3.89 3.4l1.94 4.71c.74 1.47.59 3.79-.34 5.15l-3.59 5.25c-.94 1.36-.74 3.43.42 4.6l5.66 5.65c1.17 1.17 3.24 1.36 4.6.43l5.23-3.58c1.37-.93 3.69-1.09 5.16-.34l4.72 1.94c1.56.52 3.09 2.27 3.4 3.89l1.16 6.23c.31 1.62 1.91 2.95 3.56 2.95h8c1.65 0 3.25-1.33 3.55-2.95l1.17-6.27c.31-1.62 1.84-3.38 3.4-3.9l4.65-1.94c1.47-.75 3.78-.6 5.14.33l5.32 3.64c1.36.93 3.43.74 4.6-.43l5.65-5.65c1.17-1.17 1.36-3.24.43-4.6l-3.68-5.38c-.93-1.36-1.09-3.69-.35-5.16l1.86-4.54c.52-1.56 2.27-3.09 3.89-3.4l6.42-1.2zm-46.14 5.42c-7.14 0-12.94-5.81-12.94-12.97 0-7.17 5.8-12.97 12.94-12.97 7.15 0 12.94 5.8 12.94 12.97 0 7.16-5.79 12.97-12.94 12.97zm99.9 32.48c.23-1.63 1.63-3.55 3.12-4.27l4.74-2.27c1.48-.71 2.35-2.6 1.92-4.19l-1.88-7.02c-.42-1.6-2.12-2.8-3.76-2.67l-5.86.45c-1.64.12-3.76-.75-4.7-1.94l-1-1c-1.62-1.62-2.82-2.43-2.82-2.43-1.36-.93-2.38-3.04-2.25-4.68l.31-4.04c.12-1.64-1.08-3.34-2.67-3.77l-7.02-1.88c-1.59-.42-3.48.44-4.2 1.93l-2.16 4.51c-.71 1.49-2.61 2.99-4.23 3.33l-3.94 1.27c-1.52.65-3.88.42-5.24-.52l-3.51-2.4c-1.37-.93-3.43-.74-4.6.43l-5.14 5.13c-1.17 1.17-1.36 3.24-.43 4.6l2.84 4.15c.93 1.36 1.26 3.75.74 5.31l-.76 3.04c-.25 1.63-1.68 3.54-3.16 4.26l-4.17 1.99c-1.48.72-2.35 2.61-1.93 4.2l1.89 7.02c.42 1.59 2.12 2.79 3.76 2.67l4.49-.35c1.65-.12 3.79.86 4.77 2.19 0 0 .36.49 1.67 1.81 1.23 1.23 1.54 1.46 1.54 1.46 1.32.99 2.3 3.14 2.18 4.78l-.34 4.42c-.13 1.64 1.07 3.34 2.67 3.76l7.02 1.88c1.59.43 3.48-.44 4.19-1.93l1.86-3.86c.71-1.49 2.63-2.91 4.26-3.15l4.17-1.07c1.56-.55 3.94-.25 5.31.68l5.1 3.5c1.36.93 3.43.74 4.6-.43l5.14-5.14c1.16-1.16 1.36-3.23.42-4.59l-3.46-5.06c-.93-1.36-1.24-3.75-.68-5.3l1.2-4.81zm-20.37 1.9a8.362 8.362 0 01-11.84-.01c-3.28-3.27-3.29-8.58-.02-11.84 3.27-3.27 8.57-3.27 11.85.01 3.27 3.27 3.28 8.58.01 11.84z" fill="#487fbc"/><path id="Color Fill 4" d="M133.62 99.52c-4.93 4.93-12.94 4.92-17.89-.02-4.95-4.95-4.96-12.96-.02-17.9 4.93-4.94 12.95-4.93 17.89.02 4.95 4.95 4.96 12.96.02 17.9zm-82.56-31.9c-10.18 0-18.43-8.27-18.43-18.48 0-10.2 8.25-18.48 18.43-18.48 10.19 0 18.44 8.28 18.44 18.48 0 10.21-8.25 18.48-18.44 18.48z" fill="#daeaf2"/><path id="Shape 20" d="M16 14l70 70s-37 37-71 0 1-70 1-70zm81 51l55 53s-25.96 24.96-52 1c-25-23-3-54-3-54z" opacity=".2" fill="#00234a"/></g></g></g></svg>