<svg xmlns="http://www.w3.org/2000/svg" width="118" height="38"><style/><g id="Welcome"><path id="logo" d="M34.34 26.38l-1.15 6.09c-5.02 2.73-9.52 4.32-15.43 4.52C7.72 37.32.98 31.4.98 21.04.98 8.93 9.31.57 21.68.71c6.02.07 10.19 2.05 12.04 3.31l-3.35 7.63c-1.5-.73-4.32-1.24-6.7-1.24-6.11 0-9.1 3.97-9.27 9.09-.17 5.29 3.1 8.8 7.94 9.26 6.44.62 10.41-1.58 12-2.38zm22.45 1.88c-.25 1.83.42 2.95 4.66 1.1l1.52 4.5c-5.3 2.49-8.51 3.13-10.63 3.13-3.21 0-5.12-1.32-5.84-3.22-2.33 2.16-4.78 3.22-7.58 3.22-4.49 0-7.2-3.31-6.56-7.75l2.16-15.25h10.24l-1.82 12.84c-.17 1.14.55 2.07 1.61 2.07 1.02 0 1.99-.93 2.16-2.07l1.82-12.84h10.25l-1.99 14.27zM77.16 16.2l1.52-11.06h10.25l-3.26 23.29c-.21 1.66.54 2.89 4.78.6l1.67 4.76c-1.67.97-5.82 3.27-10.9 3.2-3.13-.04-5.12-1.44-5.8-3.52-1.78 2.08-3.94 3.52-7.24 3.52-4.74 0-7.49-4.41-7.49-9.91 0-7.75 4.95-13.64 11.13-13.64 2.46 0 4.11 1.06 5.34 2.76zm-.38 8.38c0-1.78-.98-3.18-2.5-3.18-1.99 0-3.56 2.04-3.56 4.37 0 1.77.93 3.17 2.5 3.17 1.95 0 3.56-2.03 3.56-4.36zm29.72-8.38l.3-2.21h10.25l-2.04 14.44c-.21 1.66.81 1.95 2.38 1.57l-.37 4.39c-2.18 1.72-4.33 2.6-6.45 2.6-3.14 0-5.13-1.44-5.8-3.52-1.78 2.12-4.03 3.52-7.24 3.52-4.75 0-7.5-4.41-7.5-9.91 0-7.58 4.95-13.64 11.14-13.64 2.45 0 4.1 1.06 5.33 2.76zm-.38 8.38c0-1.78-.97-3.18-2.5-3.18-1.99 0-3.55 2.04-3.55 4.37 0 1.77.93 3.17 2.49 3.17 1.95 0 3.56-2.03 3.56-4.36z" fill="#fff"/></g></svg>