<svg xmlns="http://www.w3.org/2000/svg" width="33" height="33"><style/><g id="Team"><g id="1"><g id="Contacts"><g id="Mail icon"><path id="Base" d="M17 1c8.84 0 16 7.16 16 16s-7.16 16-16 16S1 25.84 1 17 8.16 1 17 1z" fill="#bdd1df"/><path id="Mail" d="M9.61 13.18c.49.27 6.24 4.01 6.49 4.15.25.14.58.2.9.2.33 0 .66-.06.91-.2s6-3.88 6.49-4.15c.49-.27.95-1.12.05-1.12H9.56c-.9 0-.44.85.05 1.12zm14.99 2.06c-.55.3-6.35 3.97-6.69 4.15-.34.18-.58.2-.91.2-.32 0-.56-.02-.9-.2-.34-.18-6.14-3.85-6.7-4.15-.39-.21-.38.03-.38.22v7.56c0 .43.55.99.99.99H24c.43 0 .99-.56.99-.99v-7.56c0-.19 0-.43-.39-.22z" fill="#fff"/></g></g></g></g></svg>