<svg xmlns="http://www.w3.org/2000/svg" width="119" height="147"><style/><g id="Services"><g id="4"><g id="Rocket icon"><path id="Shape 30" d="M48.1 121s1.61 1.22 1.69 3.57c.09 2.36-.55 17.58-.55 17.58s14.43-17 18.6-22.28c3.44-4.36 4.05-12.56-2.13-17.86C59.53 96.71 48.1 121 48.1 121z" fill="#3a6da5"/><path id="Color Fill 5" d="M18.96 104.17s-1.86-.78-3.94.32C12.94 105.6.08 113.77.08 113.77s7.5-21 9.99-27.26c2.05-5.16 8.85-9.78 16.53-7.08 7.68 2.7-7.64 24.74-7.64 24.74z" fill="#487fbc"/><path id="Shape 31" d="M26.08 109.15l13.86 8c1.67.96 2.24 3.11 1.28 4.78-.97 1.67-3.11 2.25-4.78 1.28l-13.86-8c-1.67-.97-2.25-3.11-1.28-4.78a3.498 3.498 0 014.78-1.28z" fill="#d97475"/><path id="Shape 32" d="M29.81 121.69a8.004 8.004 0 012.92 10.93c-2.2 3.83-17.07 13.52-17.07 13.52s1.01-17.69 3.22-21.52a7.998 7.998 0 0110.93-2.93z" fill="#f1c40f"/><path id="Shape 27" d="M91.5 17.57c-.6-1.82-1.01-3.44-.92-3.6.1-.17.14-.3.08-.29-.05 0-.49-.04-.55-.19-.05-.14-.18-.12-.28.05-.1.18-1.71.67-3.57 1.09 0 0-35.11 7.96-50.81 36.71-17.47 31.99-16.15 53.78-16.15 53.78-.04 1.91 1.28 4.25 2.94 5.21l5.78 3.33c1.65.96 3.17 1.84 3.38 1.96.2.11 1.72.99 3.38 1.95l6.14 3.54c1.65.96 4.36.96 6.01.01 0 0 18.56-10.36 37.53-41.48 17.08-28.03 7.04-62.07 7.04-62.07z" fill="#daeaf2"/><path id="Shape 33" d="M93.44 15.94l25.12 14.5-61 105.65-25.12-14.5 61-105.65z" fill="#bedae8"/><path id="Shape 29 copy" d="M92.95 10.32l15.6 8.98-13 22.52s-6.8-6.05-14.61-10.68l12.01-20.82z" fill="#d84848"/><path id="Shape 29" d="M80.94 31.14c-.24-.14-.47-.28-.7-.42-7.92-4.57-16.73-7.4-16.73-7.4L76.49.84l16.46 9.48-12.01 20.82z" fill="#f57b71"/><path id="Shape 28 copy" d="M70.99 47.36c7.87 4.55 10.57 14.62 6.03 22.49-4.55 7.88-14.62 10.58-22.5 6.03-7.87-4.55-10.57-14.62-6.02-22.49 4.54-7.88 14.61-10.58 22.49-6.03z" fill="#fff"/><path id="Shape 28" d="M69.01 50.79c5.98 3.46 8.02 11.1 4.57 17.08-3.45 5.98-11.09 8.03-17.07 4.58-5.98-3.46-8.03-11.1-4.58-17.08 3.45-5.98 11.1-8.03 17.08-4.58z" fill="#5ad2eb"/></g></g></g></svg>