<svg xmlns="http://www.w3.org/2000/svg" width="33" height="33"><style/><g id="Team"><g id="1"><g id="Contacts"><g id="Twitter icon"><path id="Base" d="M17 1c8.84 0 16 7.16 16 16s-7.16 16-16 16S1 25.84 1 17 8.16 1 17 1z" fill="#bdd1df"/><path id="Twitter" d="M25.98 12.66c-.62.28-1.29.47-2 .55.72-.44 1.28-1.13 1.54-1.95-.68.4-1.42.7-2.22.85A3.464 3.464 0 0020.76 11c-1.92 0-3.48 1.58-3.48 3.53 0 .28.03.55.09.81a9.827 9.827 0 01-7.17-3.7c-.3.53-.47 1.13-.47 1.78 0 1.23.61 2.31 1.54 2.94-.57-.01-1.1-.17-1.57-.44v.05c0 1.71 1.2 3.14 2.79 3.46-.29.08-.6.13-.92.13-.22 0-.44-.02-.65-.07.44 1.41 1.73 2.43 3.25 2.46a6.893 6.893 0 01-4.32 1.51c-.29 0-.56-.01-.83-.05A9.68 9.68 0 0014.35 25c6.41 0 9.91-5.39 9.91-10.06 0-.15-.01-.3-.01-.45.68-.5 1.27-1.13 1.73-1.83z" fill="#fff"/></g></g></g></g></svg>