<svg xmlns="http://www.w3.org/2000/svg" viewBox="0 0 182 221" width="182" height="221">
	<style>
		tspan { white-space:pre }
		.txt0 { font-size: 24px;letter-spacing: 0px;line-height: 18px;fill: #3c4761;font-family: "Titillium Web";font-weight: 700 } 
		.txt1 { font-size: 43px;letter-spacing: 1px;line-height: 18px;fill: #3c4761;font-family: "Titillium Web";font-weight: 300 } 
		.shp2 { fill: #dfe8ed } 
		.shp3 { fill: #15c7a8 } 
	</style>
	<g id="Skills">
		<g id="2">
			<text id="GRAPHIC DESIGN" style="transform: matrix(1,0,0,1,-1.125,220.25)" >
				<tspan x="0" y="0" class="txt0">GRAPHIC DESIGN</tspan>
			</text>
			<text id="70%" style="transform: matrix(1.158,0,0,1.158,56.484,108.271)" >
				<tspan x="0" y="0" class="txt1">70%</tspan>
			</text>
			<path id="Base" fill-rule="evenodd" class="shp2" d="M90 11C134.18 11 170 46.82 170 91C170 135.18 134.18 171 90 171C45.82 171 10 135.18 10 91C10 46.82 45.82 11 90 11ZM23 91C23 128 53 158 90 158C127 158 157 128 157 91C157 54 127 24 90 24C53 24 23 54 23 91Z" />
			<path id="Progress" class="shp3" d="M90 0.33L90 31.5C90 31.5 196.17 72.67 130.58 136.92C80.12 186.35 32.7 116.12 32.7 116.12L12.67 127.08C12.67 127.08 49.25 197.47 123 170.25C181.83 148.53 182.67 78.67 159.67 44.67C136.67 10.67 90 0.33 90 0.33Z" />
		</g>
	</g>
</svg>