<svg xmlns="http://www.w3.org/2000/svg" viewBox="0 0 103 135" width="103" height="135">
	<style>
		tspan { white-space:pre }
		.shp0 { fill: #ffecba } 
		.shp1 { fill: #393939 } 
		.shp2 { fill: #e88f8d } 
		.shp3 { fill: #d97475 } 
		.shp4 { fill: #daeaf2 } 
		.shp5 { fill: #bedae8 } 
		.shp6 { fill: #f1c40f } 
		.shp7 { fill: #f39c12 } 
	</style>
	<g id="Services">
		<g id="2">
			<g id="Crayon icon">
				<path id="Color Fill 3" class="shp0" d="M3.81 90.46L7.76 130.62L44.51 113.96C44.51 113.96 36.69 87.51 3.81 90.46Z" />
				<path id="Shape 25" class="shp1" d="M5.66 119.24C5.66 119.24 11.45 119.89 18.8 126.83C26.15 133.76 9.26 134.02 9.26 134.02C9.26 134.02 0.53 130.14 0.43 129.31C0.33 128.48 2.52 119.35 2.52 119.35" />
				<path id="Shape 19" class="shp2" d="M80.66 3.42C91.9 9.91 95.75 24.28 89.26 35.52L83.76 45.05C77.27 56.29 62.9 60.14 51.66 53.65C40.42 47.16 36.57 32.79 43.06 21.55L48.56 12.02C55.05 0.78 69.42 -3.07 80.66 3.42Z" />
				<path id="Shape 23" class="shp3" d="M81.59 2.8L102.38 14.8L88.88 38.19L68.09 26.19L81.59 2.8Z" />
				<path id="Shape 17 copy" class="shp4" d="M48.31 12.46C48.31 12.46 59.48 16.6 69.65 22.47C79.83 28.35 89.01 35.95 89.01 35.95L76.51 57.61L35.81 34.11L48.31 12.46Z" />
				<path id="Shape 24" class="shp5" d="M71.09 20.99L92.74 33.49L79.74 56.01L58.09 43.51L71.09 20.99Z" />
				<path id="Shape 17" class="shp6" d="M37.85 30.33C37.85 30.33 49.02 34.47 59.2 40.34C69.37 46.22 78.55 53.83 78.55 53.83L44.51 113.96C44.51 113.96 41.55 109.94 35.98 106.73C29.42 102.94 21.27 107.47 21.27 107.47C21.27 107.47 21.37 98.29 14.21 94.15C8.76 91.01 3.81 90.46 3.81 90.46L37.85 30.33Z" />
				<path id="Shape 18" class="shp7" d="M65.59 31.44L88.97 44.95L44.97 121.16L21.59 107.66L65.59 31.44Z" />
			</g>
		</g>
	</g>
</svg>