<svg xmlns="http://www.w3.org/2000/svg" viewBox="0 0 33 33" width="33" height="33">
	<style>
		tspan { white-space:pre }
		.shp0 { fill: #bdd1df } 
		.shp1 { fill: #ffffff } 
	</style>
	<g id="Team">
		<g id="1">
			<g id="Contacts">
				<g id="Fb icon">
					<path id="base" class="shp0" d="M17 1C25.84 1 33 8.16 33 17C33 25.84 25.84 33 17 33C8.16 33 1 25.84 1 17C1 8.16 8.16 1 17 1Z" />
					<path id="Facebook Icon" class="shp1" d="M19.98 9.94L18.33 9.94C18.33 9.94 15.01 9.69 15.01 13.18C15.01 13.93 15.01 14.99 15.01 14.99L13.02 14.99L13.02 17L15.01 17L14.98 25.01L18.01 25.01L18.01 17.03L19.75 17L20.38 14.99L17.98 14.99L17.98 12.93C17.98 12.93 17.96 12.01 19.03 12.01L19.97 12.01L19.98 9.94Z" />
				</g>
			</g>
		</g>
	</g>
</svg>