<svg xmlns="http://www.w3.org/2000/svg" viewBox="0 0 161 130" width="161" height="130">
	<style>
		tspan { white-space:pre }
		.shp0 { fill: #487fbc } 
		.shp1 { fill: #daeaf2 } 
		.shp2 { opacity: 0.2;fill: #00234a } 
	</style>
	<g id="Services">
		<g id="3">
			<g id="Gears icon">
				<path id="Shape 16" class="shp0" d="M97.2 56.69C98.82 56.39 100.15 54.79 100.15 53.14L100.15 45.14C100.15 43.49 98.82 41.89 97.2 41.58L90.78 40.38C89.16 40.08 87.41 38.55 86.89 36.98L85.03 32.45C84.29 30.97 84.45 28.65 85.38 27.29L89.06 21.91C89.99 20.54 89.8 18.47 88.63 17.31L82.98 11.65C81.81 10.48 79.74 10.29 78.38 11.22L73.06 14.86C71.7 15.79 69.39 15.94 67.92 15.19L63.27 13.26C61.71 12.73 60.18 10.97 59.87 9.35L58.7 3.09C58.4 1.46 56.8 0.14 55.15 0.14L47.15 0.14C45.5 0.14 43.9 1.46 43.59 3.09L42.43 9.31C42.12 10.93 40.59 12.69 39.03 13.2L34.31 15.15C32.83 15.89 30.52 15.74 29.15 14.81L23.92 11.22C22.55 10.29 20.49 10.48 19.32 11.65L13.66 17.31C12.49 18.47 12.3 20.54 13.23 21.91L16.83 27.16C17.76 28.52 17.91 30.84 17.17 32.31L15.23 37.01C14.71 38.58 12.96 40.11 11.34 40.41L5.1 41.58C3.47 41.89 2.15 43.49 2.15 45.14L2.15 53.14C2.15 54.79 3.47 56.39 5.1 56.69L11.34 57.86C12.96 58.17 14.71 59.7 15.23 61.26L17.17 65.97C17.91 67.44 17.76 69.76 16.83 71.12L13.24 76.37C12.3 77.73 12.5 79.8 13.66 80.97L19.32 86.62C20.49 87.79 22.56 87.98 23.92 87.05L29.15 83.47C30.52 82.54 32.84 82.38 34.31 83.13L39.03 85.07C40.59 85.59 42.12 87.34 42.43 88.96L43.59 95.19C43.9 96.81 45.5 98.14 47.15 98.14L55.15 98.14C56.8 98.14 58.4 96.81 58.7 95.19L59.87 88.92C60.18 87.3 61.71 85.54 63.27 85.02L67.92 83.08C69.39 82.33 71.7 82.48 73.06 83.41L78.38 87.05C79.74 87.98 81.81 87.79 82.98 86.62L88.63 80.97C89.8 79.8 89.99 77.73 89.06 76.37L85.38 70.99C84.45 69.63 84.29 67.3 85.03 65.83L86.89 61.29C87.41 59.73 89.16 58.2 90.78 57.89L97.2 56.69ZM51.06 62.11C43.92 62.11 38.12 56.3 38.12 49.14C38.12 41.97 43.92 36.17 51.06 36.17C58.21 36.17 64 41.97 64 49.14C64 56.3 58.21 62.11 51.06 62.11ZM150.96 94.59C151.19 92.96 152.59 91.04 154.08 90.32L158.82 88.05C160.3 87.34 161.17 85.45 160.74 83.86L158.86 76.84C158.44 75.24 156.74 74.04 155.1 74.17L149.24 74.62C147.6 74.74 145.48 73.87 144.54 72.68C144.54 72.68 144.54 72.68 143.54 71.68C141.92 70.06 140.72 69.25 140.72 69.25C139.36 68.32 138.34 66.21 138.47 64.57L138.78 60.53C138.9 58.89 137.7 57.19 136.11 56.76L129.09 54.88C127.5 54.46 125.61 55.32 124.89 56.81L122.73 61.32C122.02 62.81 120.12 64.31 118.5 64.65L114.56 65.92C113.04 66.57 110.68 66.34 109.32 65.4L105.81 63C104.44 62.07 102.38 62.26 101.21 63.43L96.07 68.56C94.9 69.73 94.71 71.8 95.64 73.16L98.48 77.31C99.41 78.67 99.74 81.06 99.22 82.62L98.46 85.66C98.21 87.29 96.78 89.2 95.3 89.92L91.13 91.91C89.65 92.63 88.78 94.52 89.2 96.11L91.09 103.13C91.51 104.72 93.21 105.92 94.85 105.8L99.34 105.45C100.99 105.33 103.13 106.31 104.11 107.64C104.11 107.64 104.47 108.13 105.78 109.45C107.01 110.68 107.32 110.91 107.32 110.91C108.64 111.9 109.62 114.05 109.5 115.69L109.16 120.11C109.03 121.75 110.23 123.45 111.83 123.87L118.85 125.75C120.44 126.18 122.33 125.31 123.04 123.82L124.9 119.96C125.61 118.47 127.53 117.05 129.16 116.81L133.33 115.74C134.89 115.19 137.27 115.49 138.64 116.42L143.74 119.92C145.1 120.85 147.17 120.66 148.34 119.49L153.48 114.35C154.64 113.19 154.84 111.12 153.9 109.76L150.44 104.7C149.51 103.34 149.2 100.95 149.76 99.4L150.96 94.59ZM130.59 96.49C127.32 99.76 122.02 99.76 118.75 96.48C115.47 93.21 115.46 87.9 118.73 84.64C122 81.37 127.3 81.37 130.58 84.65C133.85 87.92 133.86 93.23 130.59 96.49Z" />
				<path id="Color Fill 4" class="shp1" d="M133.62 99.52C128.69 104.45 120.68 104.44 115.73 99.5C110.78 94.55 110.77 86.54 115.71 81.6C120.64 76.66 128.66 76.67 133.6 81.62C138.55 86.57 138.56 94.58 133.62 99.52ZM51.06 67.62C40.88 67.62 32.63 59.35 32.63 49.14C32.63 38.94 40.88 30.66 51.06 30.66C61.25 30.66 69.5 38.94 69.5 49.14C69.5 59.35 61.25 67.62 51.06 67.62Z" />
				<path id="Shape 20" class="shp2" d="M16 14L86 84C86 84 49 121 15 84C-19 47 16 14 16 14ZM97 65L152 118C152 118 126.04 142.96 100 119C75 96 97 65 97 65Z" />
			</g>
		</g>
	</g>
</svg>