<svg xmlns="http://www.w3.org/2000/svg" viewBox="0 0 33 33" width="33" height="33">
	<style>
		tspan { white-space:pre }
		.shp0 { fill: #bdd1df } 
		.shp1 { fill: #ffffff } 
	</style>
	<g id="Team">
		<g id="1">
			<g id="Contacts">
				<g id="LinkedIn icon">
					<path id="Base" class="shp0" d="M17 1C25.84 1 33 8.16 33 17C33 25.84 25.84 33 17 33C8.16 33 1 25.84 1 17C1 8.16 8.16 1 17 1Z" />
					<path id="LinkedIn icon" class="shp1" d="M13.46 9.92C13.46 10.89 12.76 11.61 11.57 11.61C10.44 11.61 9.69 10.89 9.69 9.92C9.69 8.92 10.44 8.21 11.59 8.21C12.74 8.21 13.44 8.92 13.46 9.92ZM10 24.01L10 12.99L13.01 12.99L13.01 24.01L10 24.01ZM15.02 12.99L17.7 12.99L18.02 14.11C18.47 13.4 19.43 12.61 21.25 12.61C23.47 12.61 25.01 13.9 25.01 17.1L25.01 23.98L22.01 23.98L22.01 17.58C22.01 16.18 21.04 15.23 19.82 15.23C18.89 15.23 18.35 15.87 18.1 16.49C18.01 16.71 17.99 17.02 17.99 17.33L17.99 23.98L15.02 23.98L15.02 12.99Z" />
				</g>
			</g>
		</g>
	</g>
</svg>