<svg xmlns="http://www.w3.org/2000/svg" viewBox="0 0 118 38" width="118" height="38">
	<style>
		tspan { white-space:pre }
		.shp0 { fill: #ffffff }
	</style>
	<g id="Welcome">
		<path id="logo" class="shp0" d="M34.34 26.38L33.19 32.47C28.17 35.2 23.67 36.79 17.76 36.99C7.72 37.32 0.98 31.4 0.98 21.04C0.98 8.93 9.31 0.57 21.68 0.71C27.7 0.78 31.87 2.76 33.72 4.02L30.37 11.65C28.87 10.92 26.05 10.41 23.67 10.41C17.56 10.41 14.57 14.38 14.4 19.5C14.23 24.79 17.5 28.3 22.34 28.76C28.78 29.38 32.75 27.18 34.34 26.38ZM56.79 28.26C56.54 30.09 57.21 31.21 61.45 29.36L62.97 33.86C57.67 36.35 54.46 36.99 52.34 36.99C49.13 36.99 47.22 35.67 46.5 33.77C44.17 35.93 41.72 36.99 38.92 36.99C34.43 36.99 31.72 33.68 32.36 29.24L34.52 13.99L44.76 13.99L42.94 26.83C42.77 27.97 43.49 28.9 44.55 28.9C45.57 28.9 46.54 27.97 46.71 26.83L48.53 13.99L58.78 13.99L56.79 28.26ZM77.16 16.2L78.68 5.14L88.93 5.14L85.67 28.43C85.46 30.09 86.21 31.32 90.45 29.03L92.12 33.79C90.45 34.76 86.3 37.06 81.22 36.99C78.09 36.95 76.1 35.55 75.42 33.47C73.64 35.55 71.48 36.99 68.18 36.99C63.44 36.99 60.69 32.58 60.69 27.08C60.69 19.33 65.64 13.44 71.82 13.44C74.28 13.44 75.93 14.5 77.16 16.2ZM76.78 24.58C76.78 22.8 75.8 21.4 74.28 21.4C72.29 21.4 70.72 23.44 70.72 25.77C70.72 27.54 71.65 28.94 73.22 28.94C75.17 28.94 76.78 26.91 76.78 24.58ZM106.5 16.2L106.8 13.99L117.05 13.99L115.01 28.43C114.8 30.09 115.82 30.38 117.39 30L117.02 34.39C114.84 36.11 112.69 36.99 110.57 36.99C107.43 36.99 105.44 35.55 104.77 33.47C102.99 35.59 100.74 36.99 97.53 36.99C92.78 36.99 90.03 32.58 90.03 27.08C90.03 19.5 94.98 13.44 101.17 13.44C103.62 13.44 105.27 14.5 106.5 16.2ZM106.12 24.58C106.12 22.8 105.15 21.4 103.62 21.4C101.63 21.4 100.07 23.44 100.07 25.77C100.07 27.54 101 28.94 102.56 28.94C104.51 28.94 106.12 26.91 106.12 24.58Z" />
	</g>
</svg>