<svg xmlns="http://www.w3.org/2000/svg" viewBox="0 0 33 33" width="33" height="33">
	<style>
		tspan { white-space:pre }
		.shp0 { fill: #bdd1df } 
		.shp1 { fill: #ffffff } 
	</style>
	<g id="Team">
		<g id="1">
			<g id="Contacts">
				<g id="Mail icon">
					<path id="Base" class="shp0" d="M17 1C25.84 1 33 8.16 33 17C33 25.84 25.84 33 17 33C8.16 33 1 25.84 1 17C1 8.16 8.16 1 17 1Z" />
					<path id="Mail" class="shp1" d="M9.61 13.18C10.1 13.45 15.85 17.19 16.1 17.33C16.35 17.47 16.68 17.53 17 17.53C17.33 17.53 17.66 17.47 17.91 17.33C18.16 17.19 23.91 13.45 24.4 13.18C24.89 12.91 25.35 12.06 24.45 12.06L9.56 12.06C8.66 12.06 9.12 12.91 9.61 13.18ZM24.6 15.24C24.05 15.54 18.25 19.21 17.91 19.39C17.57 19.57 17.33 19.59 17 19.59C16.68 19.59 16.44 19.57 16.1 19.39C15.76 19.21 9.96 15.54 9.4 15.24C9.01 15.03 9.02 15.27 9.02 15.46C9.02 15.65 9.02 23.02 9.02 23.02C9.02 23.45 9.57 24.01 10.01 24.01L24 24.01C24.43 24.01 24.99 23.45 24.99 23.02C24.99 23.02 24.99 15.65 24.99 15.46C24.99 15.27 24.99 15.03 24.6 15.24Z" />
				</g>
			</g>
		</g>
	</g>
</svg>