<svg xmlns="http://www.w3.org/2000/svg" viewBox="0 0 119 147" width="119" height="147">
	<style>
		tspan { white-space:pre }
		.shp0 { fill: #3a6da5 } 
		.shp1 { fill: #487fbc } 
		.shp2 { fill: #d97475 } 
		.shp3 { fill: #f1c40f } 
		.shp4 { fill: #daeaf2 } 
		.shp5 { fill: #bedae8 } 
		.shp6 { fill: #d84848 } 
		.shp7 { fill: #f57b71 } 
		.shp8 { fill: #ffffff } 
		.shp9 { fill: #5ad2eb } 
	</style>
	<g id="Services">
		<g id="4">
			<g id="Rocket icon">
				<path id="Shape 30" class="shp0" d="M48.1 121C48.1 121 49.71 122.22 49.79 124.57C49.88 126.93 49.24 142.15 49.24 142.15C49.24 142.15 63.67 125.15 67.84 119.87C71.28 115.51 71.89 107.31 65.71 102.01C59.53 96.71 48.1 121 48.1 121Z" />
				<path id="Color Fill 5" class="shp1" d="M18.96 104.17C18.96 104.17 17.1 103.39 15.02 104.49C12.94 105.6 0.08 113.77 0.08 113.77C0.08 113.77 7.58 92.77 10.07 86.51C12.12 81.35 18.92 76.73 26.6 79.43C34.28 82.13 18.96 104.17 18.96 104.17Z" />
				<path id="Shape 31" class="shp2" d="M26.08 109.15L39.94 117.15C41.61 118.11 42.18 120.26 41.22 121.93C40.25 123.6 38.11 124.18 36.44 123.21L22.58 115.21C20.91 114.24 20.33 112.1 21.3 110.43C22.26 108.76 24.41 108.18 26.08 109.15Z" />
				<path id="Shape 32" class="shp3" d="M29.81 121.69C33.63 123.9 34.94 128.79 32.73 132.62C30.53 136.45 15.66 146.14 15.66 146.14C15.66 146.14 16.67 128.45 18.88 124.62C21.09 120.79 25.98 119.48 29.81 121.69Z" />
				<path id="Shape 27" class="shp4" d="M91.5 17.57C90.9 15.75 90.49 14.13 90.58 13.97C90.68 13.8 90.72 13.67 90.66 13.68C90.61 13.68 90.17 13.64 90.11 13.49C90.06 13.35 89.93 13.37 89.83 13.54C89.73 13.72 88.12 14.21 86.26 14.63C86.26 14.63 51.15 22.59 35.45 51.34C17.98 83.33 19.3 105.12 19.3 105.12C19.26 107.03 20.58 109.37 22.24 110.33L28.02 113.66C29.67 114.62 31.19 115.5 31.4 115.62C31.6 115.73 33.12 116.61 34.78 117.57L40.92 121.11C42.57 122.07 45.28 122.07 46.93 121.12C46.93 121.12 65.49 110.76 84.46 79.64C101.54 51.61 91.5 17.57 91.5 17.57Z" />
				<path id="Shape 33" class="shp5" d="M93.44 15.94L118.56 30.44L57.56 136.09L32.44 121.59L93.44 15.94Z" />
				<path id="Shape 29 copy" class="shp6" d="M92.95 10.32L108.55 19.3L95.55 41.82C95.55 41.82 88.75 35.77 80.94 31.14L92.95 10.32Z" />
				<path id="Shape 29" class="shp7" d="M80.94 31.14C80.7 31 80.47 30.86 80.24 30.72C72.32 26.15 63.51 23.32 63.51 23.32L76.49 0.84L92.95 10.32L80.94 31.14Z" />
				<path id="Shape 28 copy" class="shp8" d="M70.99 47.36C78.86 51.91 81.56 61.98 77.02 69.85C72.47 77.73 62.4 80.43 54.52 75.88C46.65 71.33 43.95 61.26 48.5 53.39C53.04 45.51 63.11 42.81 70.99 47.36Z" />
				<path id="Shape 28" class="shp9" d="M69.01 50.79C74.99 54.25 77.03 61.89 73.58 67.87C70.13 73.85 62.49 75.9 56.51 72.45C50.53 68.99 48.48 61.35 51.93 55.37C55.38 49.39 63.03 47.34 69.01 50.79Z" />
			</g>
		</g>
	</g>
</svg>