<svg xmlns="http://www.w3.org/2000/svg" viewBox="0 0 33 33" width="33" height="33">
	<style>
		tspan { white-space:pre }
		.shp0 { fill: #bdd1df } 
		.shp1 { fill: #ffffff } 
	</style>
	<g id="Team">
		<g id="1">
			<g id="Contacts">
				<g id="Twitter icon">
					<path id="Base" class="shp0" d="M17 1C25.84 1 33 8.16 33 17C33 25.84 25.84 33 17 33C8.16 33 1 25.84 1 17C1 8.16 8.16 1 17 1Z" />
					<path id="Twitter" class="shp1" d="M25.98 12.66C25.36 12.94 24.69 13.13 23.98 13.21C24.7 12.77 25.26 12.08 25.52 11.26C24.84 11.66 24.1 11.96 23.3 12.11C22.67 11.43 21.76 11 20.76 11C18.84 11 17.28 12.58 17.28 14.53C17.28 14.81 17.31 15.08 17.37 15.34C14.48 15.19 11.91 13.78 10.2 11.64C9.9 12.17 9.73 12.77 9.73 13.42C9.73 14.65 10.34 15.73 11.27 16.36C10.7 16.35 10.17 16.19 9.7 15.92C9.7 15.94 9.7 15.95 9.7 15.97C9.7 17.68 10.9 19.11 12.49 19.43C12.2 19.51 11.89 19.56 11.57 19.56C11.35 19.56 11.13 19.54 10.92 19.49C11.36 20.9 12.65 21.92 14.17 21.95C12.98 22.9 11.48 23.46 9.85 23.46C9.56 23.46 9.29 23.45 9.02 23.41C10.56 24.42 12.39 25 14.35 25C20.76 25 24.26 19.61 24.26 14.94C24.26 14.79 24.25 14.64 24.25 14.49C24.93 13.99 25.52 13.36 25.98 12.66Z" />
				</g>
			</g>
		</g>
	</g>
</svg>